<?xml version="1.0" encoding="UTF-8" standalone="no"?>
<!-- Created with Inkscape (http://www.inkscape.org/) -->

<svg
   xmlns:dc="http://purl.org/dc/elements/1.1/"
   xmlns:cc="http://creativecommons.org/ns#"
   xmlns:rdf="http://www.w3.org/1999/02/22-rdf-syntax-ns#"
   xmlns:svg="http://www.w3.org/2000/svg"
   xmlns="http://www.w3.org/2000/svg"
   xmlns:sodipodi="http://sodipodi.sourceforge.net/DTD/sodipodi-0.dtd"
   xmlns:inkscape="http://www.inkscape.org/namespaces/inkscape"
   id="svg2"
   version="1.1"
   inkscape:version="0.91 r13725"
   width="25.998646"
   height="25.998646"
   viewBox="0 0 25.998646 25.998646"
   sodipodi:docname="store-online.svg">
  <metadata
     id="metadata8">
    <rdf:RDF>
      <cc:Work
         rdf:about="">
        <dc:format>image/svg+xml</dc:format>
        <dc:type
           rdf:resource="http://purl.org/dc/dcmitype/StillImage" />
        <dc:title></dc:title>
      </cc:Work>
    </rdf:RDF>
  </metadata>
  <defs
     id="defs6" />
  <sodipodi:namedview
     pagecolor="#ffffff"
     bordercolor="#666666"
     borderopacity="1"
     objecttolerance="10"
     gridtolerance="10"
     guidetolerance="10"
     inkscape:pageopacity="0"
     inkscape:pageshadow="2"
     inkscape:window-width="1342"
     inkscape:window-height="868"
     id="namedview4"
     showgrid="false"
     inkscape:zoom="6.4186882"
     inkscape:cx="-6.328725"
     inkscape:cy="13.550984"
     inkscape:window-x="0"
     inkscape:window-y="0"
     inkscape:window-maximized="0"
     inkscape:current-layer="svg2" />
  <g
     id="g4163"
     inkscape:export-xdpi="372.69864"
     inkscape:export-ydpi="372.69864">
    <path
       inkscape:connector-curvature="0"
       id="path4151"
       d="m -34.505603,-4.6302425 c -0.824123,-0.07392 -1.361799,-0.1957609 -2.138055,-0.4844934 -2.681912,-0.9975513 -4.649728,-3.3191597 -5.186992,-6.1195551 -0.154373,-0.804644 -0.153775,-2.259179 0.0013,-3.065899 0.537612,-2.797457 2.584614,-5.182179 5.280305,-6.151462 l 0.447354,-0.160854 0.0069,-1.018818 c 0.0039,-0.57819 0.05951,-1.328101 0.128452,-1.733942 0.798636,-4.701544 4.438071,-8.337554 9.145898,-9.137289 1.444401,-0.245366 3.342939,-0.142181 4.788255,0.260239 3.491546,0.972152 6.406405,3.752842 7.508332,7.162727 0.20367,0.630249 0.25747,0.730503 0.373347,0.695726 0.278823,-0.08368 1.570676,-0.03301 2.061713,0.08088 1.025335,0.23779 2.1183945,0.918357 2.8068075,1.747591 1.0504268,1.265299 1.4147629,2.788729 1.080732,4.518949 -0.049088,0.254256 -0.044784,0.259488 0.5125611,0.62271 0.694606,0.452679 1.724947,1.520989 2.125103,2.203415 0.5766152,0.983358 0.8829899,1.906117 0.9741532,2.934015 0.1908101,2.151442 -0.5385521,4.1589599 -2.0535766,5.6523298 -0.616589,0.6077766 -0.9661285,0.8594849 -1.7454551,1.2569288 -0.8184226,0.4173796 -1.6472711,0.6534351 -2.5862351,0.7365563 -0.941755,0.083363 -22.601715,0.083592 -23.530934,2.193e-4 z m 11.428488,-4.7691942 c 0.180406,-0.084798 0.427369,-0.2673466 0.548807,-0.4056578 0.454983,-0.5181975 0.440264,-0.3389515 0.440264,-5.3614005 l 0,-4.584669 1.703294,1.69255 c 1.491767,1.482358 1.744185,1.703506 2.032565,1.780757 0.987958,0.264655 2.122458,-0.632394 2.143613,-1.694952 0.01583,-0.794931 0.0793,-0.716057 -3.342504,-4.153569 -2.239185,-2.249463 -3.260344,-3.22588 -3.505227,-3.351642 -0.510242,-0.262042 -1.142426,-0.247904 -1.632468,0.0365 -0.236417,0.137211 -1.460157,1.31241 -3.451221,3.314325 -3.384228,3.402672 -3.325324,3.32799 -3.325324,4.216035 0,0.673454 0.258754,1.109624 0.872365,1.470504 0.400422,0.235498 1.071431,0.261415 1.471953,0.05685 0.141026,-0.07202 0.989926,-0.859732 1.886444,-1.750454 l 1.630034,-1.619496 0,4.59726 c 0,3.734819 0.0189,4.642483 0.100725,4.838329 0.149398,0.3575601 0.554624,0.7849816 0.887655,0.9362748 0.414219,0.1881766 1.11844,0.1801436 1.539025,-0.017554 z"
       style="fill:#2b78c2;fill-opacity:1" />
    <path
       inkscape:connector-curvature="0"
       id="path4153"
       d="m -24.967148,-9.8180627 -0.508792,-0.4544133 -0.04546,-4.776176 -0.04546,-4.776176 -1.844271,1.725201 c -1.659961,1.552789 -1.901837,1.7252 -2.420295,1.7252 -0.874837,0 -1.486827,-0.677399 -1.486827,-1.645736 l 0,-0.734934 3.310645,-3.320011 c 3.369295,-3.378827 3.711952,-3.633996 4.595955,-3.42251 0.277011,0.06627 1.598542,1.275914 3.739082,3.42251 3.26787,3.277114 3.310645,3.328547 3.310645,3.980643 0,0.883918 -0.778476,1.720038 -1.601457,1.720038 -0.477324,0 -0.756795,-0.20507 -2.340443,-1.717368 l -1.798393,-1.717369 -0.05101,4.768334 -0.05101,4.768333 -0.508792,0.4544234 c -0.703675,0.6284836 -1.550428,0.6284883 -2.254113,1.09e-5 z"
       style="opacity:1;fill:#ffffff;fill-opacity:1;fill-rule:nonzero;stroke:none;stroke-width:1;stroke-linecap:round;stroke-linejoin:miter;stroke-miterlimit:4;stroke-dasharray:none;stroke-dashoffset:0;stroke-opacity:1" />
  </g>
  <g
     id="g4159"
     inkscape:export-xdpi="372.69864"
     inkscape:export-ydpi="372.69864">
    <path
       inkscape:connector-curvature="0"
       id="path4149"
       d="m -15.230894,3.7248229 c -1.845908,-0.313331 -3.042352,-1.597162 -3.337441,-3.58120401 -0.299468,-2.01347699 0.194954,-3.67130999 1.403394,-4.70568999 1.123648,-0.961802 0.397578,-0.919228 14.9743867,-0.878025 l 13.1184453,0.03708 0.549853,0.297645 c 1.32139,0.715289 2.102831,2.00929 2.230167,3.692967 0.180999,2.39320999 -0.615603,3.980959 -2.436362,4.856048 l -0.756047,0.363369 -12.5091433,0.0207 c -6.882776,0.0114 -12.8366317,-0.03489 -13.2372527,-0.10289 z M 8.6548177,0.95465489 c 1.4862913,-0.762131 1.4862913,-2.88064099 0,-3.64277199 -0.331747,-0.170111 -0.762536,-0.309292 -0.95731,-0.309292 -0.194774,0 -0.625563,0.139181 -0.957309,0.309292 -1.486291,0.762131 -1.486291,2.88064099 0,3.64277199 0.331746,0.17011101 0.762535,0.30929201 0.957309,0.30929201 0.194774,0 0.625563,-0.139181 0.95731,-0.30929201 z M -18.302047,-6.3885941 c 0.143318,-0.365187 1.109763,-2.952738 2.147655,-5.7501119 1.037891,-2.797375 2.033402,-5.397733 2.212246,-5.778575 0.735742,-1.566735 1.795678,-2.342039 3.407645,-2.492567 l 0.9116567,-0.08513 0,0.373664 c 0,0.566987 0.654625,2.403805 1.111344,3.118329 0.614676,0.961647 1.876912,2.087226 2.875087,2.563816 0.572692,0.273439 0.979111,0.571904 1.131919,0.831256 0.376308,0.638687 1.809403,1.889903 2.607408,2.276491 2.10226594,1.018429 4.576682,1.027793 6.555974,0.02481 0.367544,-0.186249 0.693043,-0.313853 0.72333,-0.283566 0.03029,0.03029 0.466154,0.120739 0.968592,0.201004 1.333396,0.21301 2.673285,-0.0049 3.9725823,-0.64616 l 1.045056,-0.51576 1.111022,3.3419489 c 0.611064,1.83807 1.068663,3.319514 1.016891,3.292097 -0.648577,-0.343461 -1.602358,-0.732999 -2.155372,-0.880284 -0.879116,-0.234136 -26.600907,-0.2738 -27.49333,-0.0424 -0.738949,0.191609 -1.566904,0.540788 -2.029921,0.856093 l -0.380365,0.25902 0.26058,-0.663977 z m 18.01399164,-6.6285439 c -1.08055894,-0.422764 -1.90824894,-1.092134 -2.50193594,-2.023364 -0.479561,-0.752219 -0.64486,-0.901288 -1.206134,-1.087714 -1.828013,-0.607167 -3.072739,-2.086054 -3.44186,-4.08935 -0.384092,-2.084542 0.801699,-4.4722 2.67661,-5.389509 0.668322,-0.326979 0.738084,-0.407308 0.898996,-1.03515 0.200708,-0.783124 1.002007,-2.070598 1.678855,-2.697471 2.32649494,-2.154723 5.822444,-2.14107 8.097259,0.03162 0.462795,0.442018 0.508678,0.455911 1.030143,0.311927 0.844537,-0.233188 2.497934,-0.08455 3.2279663,0.290196 0.993614,0.510045 1.526843,0.980417 2.079131,1.83404 0.383749,0.593128 0.68854,0.885622 1.178122,1.130594 4.073691,2.03835 3.352775,8.119902 -1.084632,9.149819 -0.705999,0.163861 -0.805923,0.232891 -1.018045,0.703293 -0.257698,0.571472 -1.293004,1.60998 -1.9233803,1.929327 -1.153822,0.584524 -2.620802,0.622866 -3.839761,0.100361 l -0.623152,-0.267114 -0.684593,0.491832 c -0.376527,0.270507 -0.972186,0.578383 -1.323688,0.68417 -0.890103,0.267881 -2.44604306,0.23526 -3.21990106,-0.06751 z M 2.4343147,-15.50051 c 0.42922,-0.194854 0.787775,-0.547874 1.386123,-1.364731 l 0.807133,-1.101885 0.744556,0.759756 c 0.881937,0.899941 1.314148,1.150965 1.981723,1.150965 1.04733,0 1.751287,-0.670005 1.994671,-1.89847 0.261531,-1.320066 0.139575,-1.220924 1.4192603,-1.153758 0.874041,0.04587 1.243968,0.0077 1.572302,-0.162036 0.963723,-0.49836 1.487807,-1.821333 1.139537,-2.876598 -0.23056,-0.698607 -1.077616,-1.417461 -1.814084,-1.539524 -0.845089,-0.140066 -1.045576,-0.277006 -1.153806,-0.788086 -0.274669,-1.297046 -1.1616613,-2.087637 -2.3421933,-2.087637 -0.600977,0 -0.842768,0.08904 -1.624132,0.598123 -0.50492,0.328968 -0.93679,0.574193 -0.959715,0.544943 -0.02292,-0.02925 -0.263936,-0.42433 -0.535584,-0.877959 -0.917849,-1.53273 -1.729433,-2.054691 -3.19478,-2.054691 -1.96815306,0 -3.0954561,1.12622 -3.421171,3.417883 l -0.156427,1.1006 -0.754269,0.153216 c -1.769489,0.35944 -2.594219,1.360797 -2.440278,2.962895 0.13445,1.399247 1.230691,2.324226 2.754563,2.324226 l 0.775557,0 0.2870929,0.964006 c 0.55151704,1.851889 1.98266805,2.63299 3.5339211,1.928762 z"
       style="fill:#2c414e;fill-opacity:1" />
    <path
       inkscape:connector-curvature="0"
       id="path4155"
       d="m 0.51212844,-15.512247 c -0.61853947,-0.269005 -1.34392212,-1.249892 -1.59957674,-2.163 l -0.1939033,-0.692555 -0.8784209,-0.109752 c -1.2228218,-0.152781 -1.9802302,-0.576564 -2.3596329,-1.320255 -0.3655279,-0.716494 -0.4063448,-1.711039 -0.094797,-2.309824 0.4365251,-0.838988 0.898952,-1.111075 2.8349978,-1.668084 0.094423,-0.02717 0.2191331,-0.453154 0.2771327,-0.946641 0.2737287,-2.329003 1.40214989,-3.492495 3.3872222,-3.492495 1.3268784,0 2.0667322,0.449686 2.9366709,1.784919 0.3652882,0.560666 0.7284295,1.019392 0.8069808,1.019392 0.078551,0 0.6136519,-0.256625 1.1891124,-0.570279 0.890345,-0.485281 1.1338665,-0.553798 1.6338544,-0.459701 0.8262508,0.1555 1.5998572,0.88978 1.9048452,1.808012 0.242425,0.729872 0.290452,0.774219 1.090313,1.006744 1.863052,0.541604 2.489289,1.806169 1.684884,3.4023 -0.370308,0.734781 -1.065028,1.043485 -2.349787,1.044145 -1.2555985,6.39e-4 -1.2082775,-0.03962 -1.5778411,1.342695 -0.2335714,0.873651 -0.7003156,1.421494 -1.3681731,1.605898 -0.7510794,0.207383 -1.3821096,-0.06855 -2.4358256,-1.065106 l -0.8248761,-0.780134 -0.8212474,1.097419 c -1.1355244,1.517381 -2.1105135,1.958362 -3.24193226,1.466302 z"
       style="opacity:1;fill:#ffffff;fill-opacity:1;fill-rule:nonzero;stroke:none;stroke-width:1;stroke-linecap:round;stroke-linejoin:miter;stroke-miterlimit:4;stroke-dasharray:none;stroke-dashoffset:0;stroke-opacity:1" />
  </g>
</svg>
